<?xml version='1.0' encoding='UTF-8' standalone='no'?>
<!-- Created with Fritzing (http://www.fritzing.org/) -->
<svg xmlns="http://www.w3.org/2000/svg" width="2.24409in" baseProfile="tiny" xmlns:svg="http://www.w3.org/2000/svg"  height="2.3622in" y="0in" viewBox="0 0 161.575 170.079" x="0in" version="1.2">
 <g transform="matrix(-1, 0, 0, 1, 161.575, 0)">
  <g partID="57830">
   <g id="board" >
    <rect stroke-width="0.5" width="160.999" id="boardoutline" fill="none" fill-opacity="0.5"  height="169.503" y="0.288" stroke="black" x="0.288"/>
   </g>
  </g>
  <g partID="12361152">
   <g transform="translate(69.0911,143.778)">
    <g id="copper1" >
     <!--  <rect width="55" x="10" y="35" fill="none" height="55" stroke="rgb(255, 191, 0)" stroke-width="20" /> -->
     <circle stroke-width="2.16" id="connector0pin" fill="black" cx="2.7" cy="4.5" r="1.98"  stroke="black"/>
     <circle stroke-width="2.16" id="connector1pin" fill="black" cx="9.9" cy="4.5" r="1.98"  stroke="black"/>
    </g>
   </g>
  </g>
  <g partID="12301102">
   <g transform="translate(69.0911,68.1784)">
    <g id="copper1" >
     <!--  <rect width="55" x="10" y="35" fill="none" height="55" stroke="rgb(255, 191, 0)" stroke-width="20" /> -->
     <circle stroke-width="2.16" id="connector0pin" fill="black" cx="2.7" cy="4.5" r="1.98"  stroke="black"/>
     <circle stroke-width="2.16" id="connector1pin" fill="black" cx="9.9" cy="4.5" r="1.98"  stroke="black"/>
    </g>
   </g>
  </g>
  <g partID="12361162">
   <g transform="translate(69.0911,129.378)">
    <g id="copper1" >
     <!--  <rect width="55" x="10" y="35" fill="none" height="55" stroke="rgb(255, 191, 0)" stroke-width="20" /> -->
     <circle stroke-width="2.16" id="connector0pin" fill="black" cx="2.7" cy="4.5" r="1.98"  stroke="black"/>
     <circle stroke-width="2.16" id="connector1pin" fill="black" cx="9.9" cy="4.5" r="1.98"  stroke="black"/>
    </g>
   </g>
  </g>
  <g partID="12301082">
   <g transform="translate(69.0911,53.7784)">
    <g id="copper1" >
     <!--  <rect width="55" x="10" y="35" fill="none" height="55" stroke="rgb(255, 191, 0)" stroke-width="20" /> -->
     <circle stroke-width="2.16" id="connector0pin" fill="black" cx="2.7" cy="4.5" r="1.98"  stroke="black"/>
     <circle stroke-width="2.16" id="connector1pin" fill="black" cx="9.9" cy="4.5" r="1.98"  stroke="black"/>
    </g>
   </g>
  </g>
  <g partID="12361172">
   <g transform="translate(69.0911,114.978)">
    <g id="copper1" >
     <!--  <rect width="55" x="10" y="35" fill="none" height="55" stroke="rgb(255, 191, 0)" stroke-width="20" /> -->
     <circle stroke-width="2.16" id="connector0pin" fill="black" cx="2.7" cy="4.5" r="1.98"  stroke="black"/>
     <circle stroke-width="2.16" id="connector1pin" fill="black" cx="9.9" cy="4.5" r="1.98"  stroke="black"/>
    </g>
   </g>
  </g>
  <g partID="12301062">
   <g transform="translate(69.0911,39.3784)">
    <g id="copper1" >
     <!--  <rect width="55" x="10" y="35" fill="none" height="55" stroke="rgb(255, 191, 0)" stroke-width="20" /> -->
     <circle stroke-width="2.16" id="connector0pin" fill="black" cx="2.7" cy="4.5" r="1.98"  stroke="black"/>
     <circle stroke-width="2.16" id="connector1pin" fill="black" cx="9.9" cy="4.5" r="1.98"  stroke="black"/>
    </g>
   </g>
  </g>
  <g partID="12361182">
   <g transform="translate(69.0911,100.578)">
    <g id="copper1" >
     <!--  <rect width="55" x="10" y="35" fill="none" height="55" stroke="rgb(255, 191, 0)" stroke-width="20" /> -->
     <circle stroke-width="2.16" id="connector0pin" fill="black" cx="2.7" cy="4.5" r="1.98"  stroke="black"/>
     <circle stroke-width="2.16" id="connector1pin" fill="black" cx="9.9" cy="4.5" r="1.98"  stroke="black"/>
    </g>
   </g>
  </g>
  <g partID="12301042">
   <g transform="translate(69.0911,24.9784)">
    <g id="copper1" >
     <!--  <rect width="55" x="10" y="35" fill="none" height="55" stroke="rgb(255, 191, 0)" stroke-width="20" /> -->
     <circle stroke-width="2.16" id="connector0pin" fill="black" cx="2.7" cy="4.5" r="1.98"  stroke="black"/>
     <circle stroke-width="2.16" id="connector1pin" fill="black" cx="9.9" cy="4.5" r="1.98"  stroke="black"/>
    </g>
   </g>
  </g>
  <g partID="12361192">
   <g transform="translate(67.2911,136.578)">
    <g id="copper1" >
     <!-- <rect width="55" x="35" y="35" fill="none" height="55" stroke="rgb(255, 191, 0)" stroke-width="20" /> -->
     <circle stroke-width="2.16" id="connector0pin" fill="black" cx="4.5" cy="4.5" r="1.98"  stroke="black"/>
     <circle stroke-width="2.16" id="connector1pin" fill="black" cx="11.7" cy="4.5" r="1.98"  stroke="black"/>
    </g>
   </g>
  </g>
  <g partID="12301022">
   <g transform="translate(67.2911,60.9784)">
    <g id="copper1" >
     <!-- <rect width="55" x="35" y="35" fill="none" height="55" stroke="rgb(255, 191, 0)" stroke-width="20" /> -->
     <circle stroke-width="2.16" id="connector0pin" fill="black" cx="4.5" cy="4.5" r="1.98"  stroke="black"/>
     <circle stroke-width="2.16" id="connector1pin" fill="black" cx="11.7" cy="4.5" r="1.98"  stroke="black"/>
    </g>
   </g>
  </g>
  <g partID="12361202">
   <g transform="translate(67.2911,122.178)">
    <g id="copper1" >
     <!-- <rect width="55" x="35" y="35" fill="none" height="55" stroke="rgb(255, 191, 0)" stroke-width="20" /> -->
     <circle stroke-width="2.16" id="connector0pin" fill="black" cx="4.5" cy="4.5" r="1.98"  stroke="black"/>
     <circle stroke-width="2.16" id="connector1pin" fill="black" cx="11.7" cy="4.5" r="1.98"  stroke="black"/>
    </g>
   </g>
  </g>
  <g partID="12301002">
   <g transform="translate(67.2911,46.5784)">
    <g id="copper1" >
     <!-- <rect width="55" x="35" y="35" fill="none" height="55" stroke="rgb(255, 191, 0)" stroke-width="20" /> -->
     <circle stroke-width="2.16" id="connector0pin" fill="black" cx="4.5" cy="4.5" r="1.98"  stroke="black"/>
     <circle stroke-width="2.16" id="connector1pin" fill="black" cx="11.7" cy="4.5" r="1.98"  stroke="black"/>
    </g>
   </g>
  </g>
  <g partID="12361212">
   <g transform="translate(67.2911,107.778)">
    <g id="copper1" >
     <!-- <rect width="55" x="35" y="35" fill="none" height="55" stroke="rgb(255, 191, 0)" stroke-width="20" /> -->
     <circle stroke-width="2.16" id="connector0pin" fill="black" cx="4.5" cy="4.5" r="1.98"  stroke="black"/>
     <circle stroke-width="2.16" id="connector1pin" fill="black" cx="11.7" cy="4.5" r="1.98"  stroke="black"/>
    </g>
   </g>
  </g>
  <g partID="12300982">
   <g transform="translate(67.2911,32.1784)">
    <g id="copper1" >
     <!-- <rect width="55" x="35" y="35" fill="none" height="55" stroke="rgb(255, 191, 0)" stroke-width="20" /> -->
     <circle stroke-width="2.16" id="connector0pin" fill="black" cx="4.5" cy="4.5" r="1.98"  stroke="black"/>
     <circle stroke-width="2.16" id="connector1pin" fill="black" cx="11.7" cy="4.5" r="1.98"  stroke="black"/>
    </g>
   </g>
  </g>
  <g partID="12361222">
   <g transform="translate(67.2911,93.3784)">
    <g id="copper1" >
     <!-- <rect width="55" x="35" y="35" fill="none" height="55" stroke="rgb(255, 191, 0)" stroke-width="20" /> -->
     <circle stroke-width="2.16" id="connector0pin" fill="black" cx="4.5" cy="4.5" r="1.98"  stroke="black"/>
     <circle stroke-width="2.16" id="connector1pin" fill="black" cx="11.7" cy="4.5" r="1.98"  stroke="black"/>
    </g>
   </g>
  </g>
  <g partID="74912">
   <g transform="translate(67.2911,17.7784)">
    <g id="copper1" >
     <!-- <rect width="55" x="35" y="35" fill="none" height="55" stroke="rgb(255, 191, 0)" stroke-width="20" /> -->
     <circle stroke-width="2.16" id="connector0pin" fill="black" cx="4.5" cy="4.5" r="1.98"  stroke="black"/>
     <circle stroke-width="2.16" id="connector1pin" fill="black" cx="11.7" cy="4.5" r="1.98"  stroke="black"/>
    </g>
   </g>
  </g>
  <g partID="12361232">
   <g transform="translate(117.151,137.478)">
    <g id="copper1" >
     <g id="copper0" >
      <rect stroke-width="2.16" width="4.464" fill="black"  height="4.464" y="12.168" stroke="black" x="6.408"/>
      <circle stroke-width="2.16" id="connector0pad" cx="8.64" cy="14.4" fill="black" r="2.232"  stroke="black"/>
      <circle stroke-width="2.16" id="connector1pad" cx="15.84" cy="14.4" fill="black" r="2.232"  stroke="black"/>
      <circle stroke-width="2.16" id="connector2pad" cx="23.04" cy="14.4" fill="black" r="2.232"  stroke="black"/>
     </g>
    </g>
   </g>
  </g>
  <g partID="12302092">
   <g transform="translate(117.151,61.8784)">
    <g id="copper1" >
     <g id="copper0" >
      <rect stroke-width="2.16" width="4.464" fill="black"  height="4.464" y="12.168" stroke="black" x="6.408"/>
      <circle stroke-width="2.16" id="connector0pad" cx="8.64" cy="14.4" fill="black" r="2.232"  stroke="black"/>
      <circle stroke-width="2.16" id="connector1pad" cx="15.84" cy="14.4" fill="black" r="2.232"  stroke="black"/>
      <circle stroke-width="2.16" id="connector2pad" cx="23.04" cy="14.4" fill="black" r="2.232"  stroke="black"/>
     </g>
    </g>
   </g>
  </g>
  <g partID="12361242">
   <g transform="translate(84.7511,130.278)">
    <g id="copper1" >
     <g id="copper0" >
      <rect stroke-width="2.16" width="4.464" fill="black"  height="4.464" y="12.168" stroke="black" x="6.408"/>
      <circle stroke-width="2.16" id="connector0pad" cx="8.64" cy="14.4" fill="black" r="2.232"  stroke="black"/>
      <circle stroke-width="2.16" id="connector1pad" cx="15.84" cy="14.4" fill="black" r="2.232"  stroke="black"/>
      <circle stroke-width="2.16" id="connector2pad" cx="23.04" cy="14.4" fill="black" r="2.232"  stroke="black"/>
     </g>
    </g>
   </g>
  </g>
  <g partID="12302072">
   <g transform="translate(84.7511,54.6784)">
    <g id="copper1" >
     <g id="copper0" >
      <rect stroke-width="2.16" width="4.464" fill="black"  height="4.464" y="12.168" stroke="black" x="6.408"/>
      <circle stroke-width="2.16" id="connector0pad" cx="8.64" cy="14.4" fill="black" r="2.232"  stroke="black"/>
      <circle stroke-width="2.16" id="connector1pad" cx="15.84" cy="14.4" fill="black" r="2.232"  stroke="black"/>
      <circle stroke-width="2.16" id="connector2pad" cx="23.04" cy="14.4" fill="black" r="2.232"  stroke="black"/>
     </g>
    </g>
   </g>
  </g>
  <g partID="12361252">
   <g transform="translate(117.151,123.078)">
    <g id="copper1" >
     <g id="copper0" >
      <rect stroke-width="2.16" width="4.464" fill="black"  height="4.464" y="12.168" stroke="black" x="6.408"/>
      <circle stroke-width="2.16" id="connector0pad" cx="8.64" cy="14.4" fill="black" r="2.232"  stroke="black"/>
      <circle stroke-width="2.16" id="connector1pad" cx="15.84" cy="14.4" fill="black" r="2.232"  stroke="black"/>
      <circle stroke-width="2.16" id="connector2pad" cx="23.04" cy="14.4" fill="black" r="2.232"  stroke="black"/>
     </g>
    </g>
   </g>
  </g>
  <g partID="12302052">
   <g transform="translate(117.151,47.4784)">
    <g id="copper1" >
     <g id="copper0" >
      <rect stroke-width="2.16" width="4.464" fill="black"  height="4.464" y="12.168" stroke="black" x="6.408"/>
      <circle stroke-width="2.16" id="connector0pad" cx="8.64" cy="14.4" fill="black" r="2.232"  stroke="black"/>
      <circle stroke-width="2.16" id="connector1pad" cx="15.84" cy="14.4" fill="black" r="2.232"  stroke="black"/>
      <circle stroke-width="2.16" id="connector2pad" cx="23.04" cy="14.4" fill="black" r="2.232"  stroke="black"/>
     </g>
    </g>
   </g>
  </g>
  <g partID="12361262">
   <g transform="translate(84.7511,115.878)">
    <g id="copper1" >
     <g id="copper0" >
      <rect stroke-width="2.16" width="4.464" fill="black"  height="4.464" y="12.168" stroke="black" x="6.408"/>
      <circle stroke-width="2.16" id="connector0pad" cx="8.64" cy="14.4" fill="black" r="2.232"  stroke="black"/>
      <circle stroke-width="2.16" id="connector1pad" cx="15.84" cy="14.4" fill="black" r="2.232"  stroke="black"/>
      <circle stroke-width="2.16" id="connector2pad" cx="23.04" cy="14.4" fill="black" r="2.232"  stroke="black"/>
     </g>
    </g>
   </g>
  </g>
  <g partID="12302032">
   <g transform="translate(84.7511,40.2784)">
    <g id="copper1" >
     <g id="copper0" >
      <rect stroke-width="2.16" width="4.464" fill="black"  height="4.464" y="12.168" stroke="black" x="6.408"/>
      <circle stroke-width="2.16" id="connector0pad" cx="8.64" cy="14.4" fill="black" r="2.232"  stroke="black"/>
      <circle stroke-width="2.16" id="connector1pad" cx="15.84" cy="14.4" fill="black" r="2.232"  stroke="black"/>
      <circle stroke-width="2.16" id="connector2pad" cx="23.04" cy="14.4" fill="black" r="2.232"  stroke="black"/>
     </g>
    </g>
   </g>
  </g>
  <g partID="12361272">
   <g transform="translate(117.151,101.478)">
    <g id="copper1" >
     <g id="copper0" >
      <rect stroke-width="2.16" width="4.464" fill="black"  height="4.464" y="12.168" stroke="black" x="6.408"/>
      <circle stroke-width="2.16" id="connector0pad" cx="8.64" cy="14.4" fill="black" r="2.232"  stroke="black"/>
      <circle stroke-width="2.16" id="connector1pad" cx="15.84" cy="14.4" fill="black" r="2.232"  stroke="black"/>
      <circle stroke-width="2.16" id="connector2pad" cx="23.04" cy="14.4" fill="black" r="2.232"  stroke="black"/>
     </g>
    </g>
   </g>
  </g>
  <g partID="12302012">
   <g transform="translate(117.151,22.2784)">
    <g id="copper1" >
     <g id="copper0" >
      <rect stroke-width="2.16" width="4.464" fill="black"  height="4.464" y="12.168" stroke="black" x="6.408"/>
      <circle stroke-width="2.16" id="connector0pad" cx="8.64" cy="14.4" fill="black" r="2.232"  stroke="black"/>
      <circle stroke-width="2.16" id="connector1pad" cx="15.84" cy="14.4" fill="black" r="2.232"  stroke="black"/>
      <circle stroke-width="2.16" id="connector2pad" cx="23.04" cy="14.4" fill="black" r="2.232"  stroke="black"/>
     </g>
    </g>
   </g>
  </g>
  <g partID="12361282">
   <g transform="translate(84.7511,94.2784)">
    <g id="copper1" >
     <g id="copper0" >
      <rect stroke-width="2.16" width="4.464" fill="black"  height="4.464" y="12.168" stroke="black" x="6.408"/>
      <circle stroke-width="2.16" id="connector0pad" cx="8.64" cy="14.4" fill="black" r="2.232"  stroke="black"/>
      <circle stroke-width="2.16" id="connector1pad" cx="15.84" cy="14.4" fill="black" r="2.232"  stroke="black"/>
      <circle stroke-width="2.16" id="connector2pad" cx="23.04" cy="14.4" fill="black" r="2.232"  stroke="black"/>
     </g>
    </g>
   </g>
  </g>
  <g partID="12301992">
   <g transform="translate(84.7511,15.0784)">
    <g id="copper1" >
     <g id="copper0" >
      <rect stroke-width="2.16" width="4.464" fill="black"  height="4.464" y="12.168" stroke="black" x="6.408"/>
      <circle stroke-width="2.16" id="connector0pad" cx="8.64" cy="14.4" fill="black" r="2.232"  stroke="black"/>
      <circle stroke-width="2.16" id="connector1pad" cx="15.84" cy="14.4" fill="black" r="2.232"  stroke="black"/>
      <circle stroke-width="2.16" id="connector2pad" cx="23.04" cy="14.4" fill="black" r="2.232"  stroke="black"/>
     </g>
    </g>
   </g>
  </g>
  <g partID="12361292">
   <g transform="translate(117.151,87.0784)">
    <g id="copper1" >
     <g id="copper0" >
      <rect stroke-width="2.16" width="4.464" fill="black"  height="4.464" y="12.168" stroke="black" x="6.408"/>
      <circle stroke-width="2.16" id="connector0pad" cx="8.64" cy="14.4" fill="black" r="2.232"  stroke="black"/>
      <circle stroke-width="2.16" id="connector1pad" cx="15.84" cy="14.4" fill="black" r="2.232"  stroke="black"/>
      <circle stroke-width="2.16" id="connector2pad" cx="23.04" cy="14.4" fill="black" r="2.232"  stroke="black"/>
     </g>
    </g>
   </g>
  </g>
  <g partID="12301972">
   <g transform="translate(117.151,7.87838)">
    <g id="copper1" >
     <g id="copper0" >
      <rect stroke-width="2.16" width="4.464" fill="black"  height="4.464" y="12.168" stroke="black" x="6.408"/>
      <circle stroke-width="2.16" id="connector0pad" cx="8.64" cy="14.4" fill="black" r="2.232"  stroke="black"/>
      <circle stroke-width="2.16" id="connector1pad" cx="15.84" cy="14.4" fill="black" r="2.232"  stroke="black"/>
      <circle stroke-width="2.16" id="connector2pad" cx="23.04" cy="14.4" fill="black" r="2.232"  stroke="black"/>
     </g>
    </g>
   </g>
  </g>
  <g partID="12361302">
   <g transform="translate(84.7511,79.8784)">
    <g id="copper1" >
     <g id="copper0" >
      <rect stroke-width="2.16" width="4.464" fill="black"  height="4.464" y="12.168" stroke="black" x="6.408"/>
      <circle stroke-width="2.16" id="connector0pad" cx="8.64" cy="14.4" fill="black" r="2.232"  stroke="black"/>
      <circle stroke-width="2.16" id="connector1pad" cx="15.84" cy="14.4" fill="black" r="2.232"  stroke="black"/>
      <circle stroke-width="2.16" id="connector2pad" cx="23.04" cy="14.4" fill="black" r="2.232"  stroke="black"/>
     </g>
    </g>
   </g>
  </g>
  <g partID="74972">
   <g transform="translate(84.7511,0.678379)">
    <g id="copper1" >
     <g id="copper0" >
      <rect stroke-width="2.16" width="4.464" fill="black"  height="4.464" y="12.168" stroke="black" x="6.408"/>
      <circle stroke-width="2.16" id="connector0pad" cx="8.64" cy="14.4" fill="black" r="2.232"  stroke="black"/>
      <circle stroke-width="2.16" id="connector1pad" cx="15.84" cy="14.4" fill="black" r="2.232"  stroke="black"/>
      <circle stroke-width="2.16" id="connector2pad" cx="23.04" cy="14.4" fill="black" r="2.232"  stroke="black"/>
     </g>
    </g>
   </g>
  </g>
  <g partID="12361312">
   <g transform="translate(22.1111,159.798)">
    <g transform="matrix(-1,0,0,-1,0,0)">
     <g id="copper1" gorn="0.5" >
      <g id="copper0" gorn="0.5.0" >
       <rect stroke-width="2.16" width="3.96" id="square" gorn="0.5.0.0" fill="black"  height="3.96" y="2.34" stroke="black" x="2.34"/>
       <circle stroke-width="2.16" id="connector0pin" gorn="0.5.0.1" cx="4.32" cy="4.32" fill="black" r="1.98"  stroke="black"/>
       <circle stroke-width="2.16" id="connector1pin" gorn="0.5.0.2" cx="4.32" cy="11.52" fill="black" r="1.98"  stroke="black"/>
       <circle stroke-width="2.16" id="connector2pin" gorn="0.5.0.3" cx="4.32" cy="18.72" fill="black" r="1.98"  stroke="black"/>
       <circle stroke-width="2.16" id="connector3pin" gorn="0.5.0.4" cx="4.32" cy="25.92" fill="black" r="1.98"  stroke="black"/>
       <circle stroke-width="2.16" id="connector4pin" gorn="0.5.0.5" cx="4.32" cy="33.12" fill="black" r="1.98"  stroke="black"/>
       <circle stroke-width="2.16" id="connector5pin" gorn="0.5.0.6" cx="4.32" cy="40.32" fill="black" r="1.98"  stroke="black"/>
       <circle stroke-width="2.16" id="connector6pin" gorn="0.5.0.7" cx="4.32" cy="47.52" fill="black" r="1.98"  stroke="black"/>
       <circle stroke-width="2.16" id="connector7pin" gorn="0.5.0.8" cx="4.32" cy="54.72" fill="black" r="1.98"  stroke="black"/>
       <circle stroke-width="2.16" id="connector8pin" gorn="0.5.0.9" cx="4.32" cy="61.92" fill="black" r="1.98"  stroke="black"/>
      </g>
     </g>
    </g>
   </g>
  </g>
  <g partID="12305142">
   <g transform="translate(22.1111,80.5984)">
    <g transform="matrix(-1,0,0,-1,0,0)">
     <g id="copper1" gorn="0.5" >
      <g id="copper0" gorn="0.5.0" >
       <rect stroke-width="2.16" width="3.96" id="square" gorn="0.5.0.0" fill="black"  height="3.96" y="2.34" stroke="black" x="2.34"/>
       <circle stroke-width="2.16" id="connector0pin" gorn="0.5.0.1" cx="4.32" cy="4.32" fill="black" r="1.98"  stroke="black"/>
       <circle stroke-width="2.16" id="connector1pin" gorn="0.5.0.2" cx="4.32" cy="11.52" fill="black" r="1.98"  stroke="black"/>
       <circle stroke-width="2.16" id="connector2pin" gorn="0.5.0.3" cx="4.32" cy="18.72" fill="black" r="1.98"  stroke="black"/>
       <circle stroke-width="2.16" id="connector3pin" gorn="0.5.0.4" cx="4.32" cy="25.92" fill="black" r="1.98"  stroke="black"/>
       <circle stroke-width="2.16" id="connector4pin" gorn="0.5.0.5" cx="4.32" cy="33.12" fill="black" r="1.98"  stroke="black"/>
       <circle stroke-width="2.16" id="connector5pin" gorn="0.5.0.6" cx="4.32" cy="40.32" fill="black" r="1.98"  stroke="black"/>
       <circle stroke-width="2.16" id="connector6pin" gorn="0.5.0.7" cx="4.32" cy="47.52" fill="black" r="1.98"  stroke="black"/>
       <circle stroke-width="2.16" id="connector7pin" gorn="0.5.0.8" cx="4.32" cy="54.72" fill="black" r="1.98"  stroke="black"/>
       <circle stroke-width="2.16" id="connector8pin" gorn="0.5.0.9" cx="4.32" cy="61.92" fill="black" r="1.98"  stroke="black"/>
      </g>
     </g>
    </g>
   </g>
  </g>
  <g partID="12361322">
   <g transform="translate(65.3111,159.798)">
    <g transform="matrix(-1,0,0,-1,0,0)">
     <g id="copper1" gorn="0.5" >
      <g id="copper0" gorn="0.5.0" >
       <rect stroke-width="2.16" width="3.96" id="square" gorn="0.5.0.0" fill="black"  height="3.96" y="2.34" stroke="black" x="2.34"/>
       <circle stroke-width="2.16" id="connector0pin" gorn="0.5.0.1" cx="4.32" cy="4.32" fill="black" r="1.98"  stroke="black"/>
       <circle stroke-width="2.16" id="connector1pin" gorn="0.5.0.2" cx="4.32" cy="11.52" fill="black" r="1.98"  stroke="black"/>
       <circle stroke-width="2.16" id="connector2pin" gorn="0.5.0.3" cx="4.32" cy="18.72" fill="black" r="1.98"  stroke="black"/>
       <circle stroke-width="2.16" id="connector3pin" gorn="0.5.0.4" cx="4.32" cy="25.92" fill="black" r="1.98"  stroke="black"/>
       <circle stroke-width="2.16" id="connector4pin" gorn="0.5.0.5" cx="4.32" cy="33.12" fill="black" r="1.98"  stroke="black"/>
       <circle stroke-width="2.16" id="connector5pin" gorn="0.5.0.6" cx="4.32" cy="40.32" fill="black" r="1.98"  stroke="black"/>
       <circle stroke-width="2.16" id="connector6pin" gorn="0.5.0.7" cx="4.32" cy="47.52" fill="black" r="1.98"  stroke="black"/>
       <circle stroke-width="2.16" id="connector7pin" gorn="0.5.0.8" cx="4.32" cy="54.72" fill="black" r="1.98"  stroke="black"/>
       <circle stroke-width="2.16" id="connector8pin" gorn="0.5.0.9" cx="4.32" cy="61.92" fill="black" r="1.98"  stroke="black"/>
      </g>
     </g>
    </g>
   </g>
  </g>
  <g partID="12297252">
   <g transform="translate(65.3111,80.5984)">
    <g transform="matrix(-1,0,0,-1,0,0)">
     <g id="copper1" gorn="0.5" >
      <g id="copper0" gorn="0.5.0" >
       <rect stroke-width="2.16" width="3.96" id="square" gorn="0.5.0.0" fill="black"  height="3.96" y="2.34" stroke="black" x="2.34"/>
       <circle stroke-width="2.16" id="connector0pin" gorn="0.5.0.1" cx="4.32" cy="4.32" fill="black" r="1.98"  stroke="black"/>
       <circle stroke-width="2.16" id="connector1pin" gorn="0.5.0.2" cx="4.32" cy="11.52" fill="black" r="1.98"  stroke="black"/>
       <circle stroke-width="2.16" id="connector2pin" gorn="0.5.0.3" cx="4.32" cy="18.72" fill="black" r="1.98"  stroke="black"/>
       <circle stroke-width="2.16" id="connector3pin" gorn="0.5.0.4" cx="4.32" cy="25.92" fill="black" r="1.98"  stroke="black"/>
       <circle stroke-width="2.16" id="connector4pin" gorn="0.5.0.5" cx="4.32" cy="33.12" fill="black" r="1.98"  stroke="black"/>
       <circle stroke-width="2.16" id="connector5pin" gorn="0.5.0.6" cx="4.32" cy="40.32" fill="black" r="1.98"  stroke="black"/>
       <circle stroke-width="2.16" id="connector6pin" gorn="0.5.0.7" cx="4.32" cy="47.52" fill="black" r="1.98"  stroke="black"/>
       <circle stroke-width="2.16" id="connector7pin" gorn="0.5.0.8" cx="4.32" cy="54.72" fill="black" r="1.98"  stroke="black"/>
       <circle stroke-width="2.16" id="connector8pin" gorn="0.5.0.9" cx="4.32" cy="61.92" fill="black" r="1.98"  stroke="black"/>
      </g>
     </g>
    </g>
   </g>
  </g>
  <g partID="12361332">
   <g transform="translate(24.2711,93.5584)">
    <g id="copper1" >
     <g id="copper0" >
      <rect stroke-width="2.16" width="3.96" id="square" fill="black"  height="3.96" y="2.34" stroke="black" x="2.34"/>
      <circle stroke-width="2.16" id="connector0pin" cx="4.32" cy="4.32" fill="black" r="1.98"  stroke="black"/>
      <circle stroke-width="2.16" id="connector17pin" cx="25.92" cy="4.32" fill="black" r="1.98"  stroke="black"/>
      <circle stroke-width="2.16" id="connector1pin" cx="4.32" cy="11.52" fill="black" r="1.98"  stroke="black"/>
      <circle stroke-width="2.16" id="connector16pin" cx="25.92" cy="11.52" fill="black" r="1.98"  stroke="black"/>
      <circle stroke-width="2.16" id="connector2pin" cx="4.32" cy="18.72" fill="black" r="1.98"  stroke="black"/>
      <circle stroke-width="2.16" id="connector15pin" cx="25.92" cy="18.72" fill="black" r="1.98"  stroke="black"/>
      <circle stroke-width="2.16" id="connector3pin" cx="4.32" cy="25.92" fill="black" r="1.98"  stroke="black"/>
      <circle stroke-width="2.16" id="connector14pin" cx="25.92" cy="25.92" fill="black" r="1.98"  stroke="black"/>
      <circle stroke-width="2.16" id="connector4pin" cx="4.32" cy="33.12" fill="black" r="1.98"  stroke="black"/>
      <circle stroke-width="2.16" id="connector13pin" cx="25.92" cy="33.12" fill="black" r="1.98"  stroke="black"/>
      <circle stroke-width="2.16" id="connector5pin" cx="4.32" cy="40.32" fill="black" r="1.98"  stroke="black"/>
      <circle stroke-width="2.16" id="connector12pin" cx="25.92" cy="40.32" fill="black" r="1.98"  stroke="black"/>
      <circle stroke-width="2.16" id="connector6pin" cx="4.32" cy="47.52" fill="black" r="1.98"  stroke="black"/>
      <circle stroke-width="2.16" id="connector11pin" cx="25.92" cy="47.52" fill="black" r="1.98"  stroke="black"/>
      <circle stroke-width="2.16" id="connector7pin" cx="4.32" cy="54.72" fill="black" r="1.98"  stroke="black"/>
      <circle stroke-width="2.16" id="connector10pin" cx="25.92" cy="54.72" fill="black" r="1.98"  stroke="black"/>
      <circle stroke-width="2.16" id="connector8pin" cx="4.32" cy="61.92" fill="black" r="1.98"  stroke="black"/>
      <circle stroke-width="2.16" id="connector9pin" cx="25.92" cy="61.92" fill="black" r="1.98"  stroke="black"/>
     </g>
    </g>
   </g>
  </g>
  <g partID="12308852">
   <g transform="translate(24.2711,14.3584)">
    <g id="copper1" >
     <g id="copper0" >
      <rect stroke-width="2.16" width="3.96" id="square" fill="black"  height="3.96" y="2.34" stroke="black" x="2.34"/>
      <circle stroke-width="2.16" id="connector0pin" cx="4.32" cy="4.32" fill="black" r="1.98"  stroke="black"/>
      <circle stroke-width="2.16" id="connector17pin" cx="25.92" cy="4.32" fill="black" r="1.98"  stroke="black"/>
      <circle stroke-width="2.16" id="connector1pin" cx="4.32" cy="11.52" fill="black" r="1.98"  stroke="black"/>
      <circle stroke-width="2.16" id="connector16pin" cx="25.92" cy="11.52" fill="black" r="1.98"  stroke="black"/>
      <circle stroke-width="2.16" id="connector2pin" cx="4.32" cy="18.72" fill="black" r="1.98"  stroke="black"/>
      <circle stroke-width="2.16" id="connector15pin" cx="25.92" cy="18.72" fill="black" r="1.98"  stroke="black"/>
      <circle stroke-width="2.16" id="connector3pin" cx="4.32" cy="25.92" fill="black" r="1.98"  stroke="black"/>
      <circle stroke-width="2.16" id="connector14pin" cx="25.92" cy="25.92" fill="black" r="1.98"  stroke="black"/>
      <circle stroke-width="2.16" id="connector4pin" cx="4.32" cy="33.12" fill="black" r="1.98"  stroke="black"/>
      <circle stroke-width="2.16" id="connector13pin" cx="25.92" cy="33.12" fill="black" r="1.98"  stroke="black"/>
      <circle stroke-width="2.16" id="connector5pin" cx="4.32" cy="40.32" fill="black" r="1.98"  stroke="black"/>
      <circle stroke-width="2.16" id="connector12pin" cx="25.92" cy="40.32" fill="black" r="1.98"  stroke="black"/>
      <circle stroke-width="2.16" id="connector6pin" cx="4.32" cy="47.52" fill="black" r="1.98"  stroke="black"/>
      <circle stroke-width="2.16" id="connector11pin" cx="25.92" cy="47.52" fill="black" r="1.98"  stroke="black"/>
      <circle stroke-width="2.16" id="connector7pin" cx="4.32" cy="54.72" fill="black" r="1.98"  stroke="black"/>
      <circle stroke-width="2.16" id="connector10pin" cx="25.92" cy="54.72" fill="black" r="1.98"  stroke="black"/>
      <circle stroke-width="2.16" id="connector8pin" cx="4.32" cy="61.92" fill="black" r="1.98"  stroke="black"/>
      <circle stroke-width="2.16" id="connector9pin" cx="25.92" cy="61.92" fill="black" r="1.98"  stroke="black"/>
     </g>
    </g>
   </g>
  </g>
  <g partID="12348782">
   <g transform="translate(145.231,2.83838)">
    <g transform="matrix(0,1,-1,0,0,0)">
     <g id="copper1" >
      <g id="copper0" >
       <circle stroke-width="2.16" id="connector0pin" cx="5.04" cy="5.04" fill="black" r="2.088"  stroke="black"/>
       <circle stroke-width="2.16" id="connector1pin" cx="5.04" cy="12.24" fill="black" r="2.088"  stroke="black"/>
      </g>
     </g>
    </g>
   </g>
  </g>
  <g partID="12361352">
   <g transform="translate(1.95112,92.8384)">
    <g id="copper1" >
     <g id="copper0" >
      <circle stroke-width="2.16" id="connector0pin" cx="5.04" cy="5.04" fill="black" r="2.088"  stroke="black"/>
      <circle stroke-width="2.16" id="connector1pin" cx="5.04" cy="12.24" fill="black" r="2.088"  stroke="black"/>
      <circle stroke-width="2.16" id="connector2pin" cx="5.04" cy="19.44" fill="black" r="2.088"  stroke="black"/>
      <circle stroke-width="2.16" id="connector3pin" cx="5.04" cy="26.64" fill="black" r="2.088"  stroke="black"/>
     </g>
    </g>
   </g>
  </g>
  <g partID="12354832">
   <g transform="translate(1.95112,13.6384)">
    <g id="copper1" >
     <g id="copper0" >
      <circle stroke-width="2.16" id="connector0pin" cx="5.04" cy="5.04" fill="black" r="2.088"  stroke="black"/>
      <circle stroke-width="2.16" id="connector1pin" cx="5.04" cy="12.24" fill="black" r="2.088"  stroke="black"/>
      <circle stroke-width="2.16" id="connector2pin" cx="5.04" cy="19.44" fill="black" r="2.088"  stroke="black"/>
      <circle stroke-width="2.16" id="connector3pin" cx="5.04" cy="26.64" fill="black" r="2.088"  stroke="black"/>
     </g>
    </g>
   </g>
  </g>
  <g partID="12361362">
   <g transform="translate(1.95112,128.838)">
    <g id="copper1" >
     <g id="copper0" >
      <circle stroke-width="2.16" id="connector0pin" cx="5.04" cy="5.04" fill="black" r="2.088"  stroke="black"/>
      <circle stroke-width="2.16" id="connector1pin" cx="5.04" cy="12.24" fill="black" r="2.088"  stroke="black"/>
      <circle stroke-width="2.16" id="connector2pin" cx="5.04" cy="19.44" fill="black" r="2.088"  stroke="black"/>
      <circle stroke-width="2.16" id="connector3pin" cx="5.04" cy="26.64" fill="black" r="2.088"  stroke="black"/>
     </g>
    </g>
   </g>
  </g>
  <g partID="12354052">
   <g transform="translate(1.95112,49.6384)">
    <g id="copper1" >
     <g id="copper0" >
      <circle stroke-width="2.16" id="connector0pin" cx="5.04" cy="5.04" fill="black" r="2.088"  stroke="black"/>
      <circle stroke-width="2.16" id="connector1pin" cx="5.04" cy="12.24" fill="black" r="2.088"  stroke="black"/>
      <circle stroke-width="2.16" id="connector2pin" cx="5.04" cy="19.44" fill="black" r="2.088"  stroke="black"/>
      <circle stroke-width="2.16" id="connector3pin" cx="5.04" cy="26.64" fill="black" r="2.088"  stroke="black"/>
     </g>
    </g>
   </g>
  </g>
  <g partID="12361392">
   <g transform="translate(145.231,159.438)">
    <g transform="matrix(0,1,-1,0,0,0)">
     <g id="copper1" >
      <g id="copper0" >
       <circle stroke-width="2.16" id="connector0pin" cx="5.04" cy="5.04" fill="black" r="2.088"  stroke="black"/>
       <circle stroke-width="2.16" id="connector1pin" cx="5.04" cy="12.24" fill="black" r="2.088"  stroke="black"/>
      </g>
     </g>
    </g>
   </g>
  </g>
  <g partID="13051072">
   <g transform="translate(149.551,42.4384)">
    <g id="copper1" >
     <g id="copper0" >
      <circle stroke-width="2.16" id="connector0pin" cx="5.04" cy="5.04" fill="black" r="2.088"  stroke="black"/>
      <circle stroke-width="2.16" id="connector1pin" cx="5.04" cy="12.24" fill="black" r="2.088"  stroke="black"/>
      <circle stroke-width="2.16" id="connector2pin" cx="5.04" cy="19.44" fill="black" r="2.088"  stroke="black"/>
      <circle stroke-width="2.16" id="connector3pin" cx="5.04" cy="26.64" fill="black" r="2.088"  stroke="black"/>
      <circle stroke-width="2.16" id="connector4pin" cx="5.04" cy="33.84" fill="black" r="2.088"  stroke="black"/>
     </g>
    </g>
   </g>
  </g>
  <g partID="13052122">
   <g transform="translate(149.551,2.83838)">
    <g id="copper1" >
     <g id="copper0" >
      <circle stroke-width="2.16" id="connector0pin" cx="5.04" cy="5.04" fill="black" r="2.088"  stroke="black"/>
      <circle stroke-width="2.16" id="connector1pin" cx="5.04" cy="12.24" fill="black" r="2.088"  stroke="black"/>
      <circle stroke-width="2.16" id="connector2pin" cx="5.04" cy="19.44" fill="black" r="2.088"  stroke="black"/>
      <circle stroke-width="2.16" id="connector3pin" cx="5.04" cy="26.64" fill="black" r="2.088"  stroke="black"/>
      <circle stroke-width="2.16" id="connector4pin" cx="5.04" cy="33.84" fill="black" r="2.088"  stroke="black"/>
     </g>
    </g>
   </g>
  </g>
  <g partID="13054582">
   <g transform="translate(149.551,121.638)">
    <g id="copper1" >
     <g id="copper0" >
      <circle stroke-width="2.16" id="connector0pin" cx="5.04" cy="5.04" fill="black" r="2.088"  stroke="black"/>
      <circle stroke-width="2.16" id="connector1pin" cx="5.04" cy="12.24" fill="black" r="2.088"  stroke="black"/>
      <circle stroke-width="2.16" id="connector2pin" cx="5.04" cy="19.44" fill="black" r="2.088"  stroke="black"/>
      <circle stroke-width="2.16" id="connector3pin" cx="5.04" cy="26.64" fill="black" r="2.088"  stroke="black"/>
      <circle stroke-width="2.16" id="connector4pin" cx="5.04" cy="33.84" fill="black" r="2.088"  stroke="black"/>
     </g>
    </g>
   </g>
  </g>
  <g partID="13054962">
   <g transform="translate(149.551,82.0384)">
    <g id="copper1" >
     <g id="copper0" >
      <circle stroke-width="2.16" id="connector0pin" cx="5.04" cy="5.04" fill="black" r="2.088"  stroke="black"/>
      <circle stroke-width="2.16" id="connector1pin" cx="5.04" cy="12.24" fill="black" r="2.088"  stroke="black"/>
      <circle stroke-width="2.16" id="connector2pin" cx="5.04" cy="19.44" fill="black" r="2.088"  stroke="black"/>
      <circle stroke-width="2.16" id="connector3pin" cx="5.04" cy="26.64" fill="black" r="2.088"  stroke="black"/>
      <circle stroke-width="2.16" id="connector4pin" cx="5.04" cy="33.84" fill="black" r="2.088"  stroke="black"/>
     </g>
    </g>
   </g>
  </g>
  <g partID="13056641">
   <g transform="translate(2.273,1.36025)">
    <g id="copper1" >
     <circle stroke-width="0.72" id="nonconn0" fill="black" cx="4.71811" cy="4.71811" r="3.11811"  stroke="black"/>
    </g>
   </g>
  </g>
  <g partID="13056671">
   <g transform="translate(117.473,1.36025)">
    <g id="copper1" >
     <circle stroke-width="0.72" id="nonconn0" fill="black" cx="4.71811" cy="4.71811" r="3.11811"  stroke="black"/>
    </g>
   </g>
  </g>
  <g partID="13056731">
   <g transform="translate(2.273,159.76)">
    <g id="copper1" >
     <circle stroke-width="0.72" id="nonconn0" fill="black" cx="4.71811" cy="4.71811" r="3.11811"  stroke="black"/>
    </g>
   </g>
  </g>
  <g partID="13056761">
   <g transform="translate(149.873,159.76)">
    <g id="copper1" >
     <circle stroke-width="0.72" id="nonconn0" fill="black" cx="4.71811" cy="4.71811" r="3.11811"  stroke="black"/>
    </g>
   </g>
  </g>
  <g partID="13056831">
   <g transform="translate(2.273,82.3603)">
    <g id="copper1" >
     <circle stroke-width="0.72" id="nonconn0" fill="black" cx="4.71811" cy="4.71811" r="3.11811"  stroke="black"/>
    </g>
   </g>
  </g>
  <g partID="13056861">
   <g transform="translate(135.473,82.3603)">
    <g id="copper1" >
     <circle stroke-width="0.72" id="nonconn0" fill="black" cx="4.71811" cy="4.71811" r="3.11811"  stroke="black"/>
    </g>
   </g>
  </g>
 </g>
</svg>
