<?xml version='1.0' encoding='UTF-8' standalone='no'?>
<!-- Created with Fritzing (http://www.fritzing.org/) -->
<svg xmlns="http://www.w3.org/2000/svg" xmlns:svg="http://www.w3.org/2000/svg" width="4.33071in" version="1.2" x="0in" height="1.5748in" baseProfile="tiny" viewBox="0 0 311.811 113.386"  y="0in">
 <g partID="57830">
  <g id="board" >
   <rect width="311.236" id="boardoutline" fill="none" stroke="black" stroke-width="0.5" height="112.81" x="0.288" fill-opacity="0.5"  y="0.288"/>
  </g>
 </g>
 <g partID="14678222">
  <g transform="translate(297.694,21.5296)">
   <g transform="matrix(0,1,-1,0,0,0)">
    <g id="copper1" >
     <g id="copper0" >
      <circle cx="5.04" r="2.088" fill="none" id="connector0pin" stroke="black" stroke-width="1.44" cy="5.04" />
     </g>
    </g>
   </g>
  </g>
 </g>
 <g partID="14676492">
  <g transform="translate(215.614,21.5296)">
   <g id="copper1" >
    <g id="copper0" >
     <circle cx="5.04" r="2.088" fill="none" id="connector0pin" stroke="black" stroke-width="1.44" cy="5.04" />
    </g>
   </g>
  </g>
 </g>
 <g partID="14198892">
  <g transform="translate(287.614,7.1296)">
   <g id="copper1" >
    <g id="copper0" >
     <circle cx="5.04" r="2.088" fill="none" id="connector0pin" stroke="black" stroke-width="1.44" cy="5.04" />
    </g>
   </g>
  </g>
 </g>
 <g partID="14677282">
  <g transform="translate(71.6144,21.5296)">
   <g id="copper1" >
    <g id="copper0" >
     <circle cx="5.04" r="2.088" fill="none" id="connector0pin" stroke="black" stroke-width="1.44" cy="5.04" />
    </g>
   </g>
  </g>
 </g>
 <g partID="14164052">
  <g transform="translate(71.6144,7.1296)">
   <g id="copper1" >
    <g id="copper0" >
     <circle cx="5.04" r="2.088" fill="none" id="connector0pin" stroke="black" stroke-width="1.44" cy="5.04" />
    </g>
   </g>
  </g>
 </g>
 <g partID="14676982">
  <g transform="translate(143.614,21.5296)">
   <g id="copper1" >
    <g id="copper0" >
     <circle cx="5.04" r="2.088" fill="none" id="connector0pin" stroke="black" stroke-width="1.44" cy="5.04" />
    </g>
   </g>
  </g>
 </g>
 <g partID="14164032">
  <g transform="translate(143.614,7.1296)">
   <g id="copper1" >
    <g id="copper0" >
     <circle cx="5.04" r="2.088" fill="none" id="connector0pin" stroke="black" stroke-width="1.44" cy="5.04" />
    </g>
   </g>
  </g>
 </g>
 <g partID="14163992">
  <g transform="translate(215.614,7.1296)">
   <g id="copper1" >
    <g id="copper0" >
     <circle cx="5.04" r="2.088" fill="none" id="connector0pin" stroke="black" stroke-width="1.44" cy="5.04" />
    </g>
   </g>
  </g>
 </g>
 <g partID="14024702">
  <g transform="translate(187.534,81.2896)">
   <g transform="matrix(0,-1,1,0,0,0)">
    <g gorn="0.1" id="copper1" >
     <g gorn="0.1.0" id="copper0" >
      <rect gorn="0.1.0.0" width="3.96" id="square" fill="none" stroke-width="1.44" stroke="black" height="3.96" x="2.34"  y="2.34"/>
      <circle gorn="0.1.0.1" cx="4.32" r="1.98" id="connector0pin" fill="none" stroke-width="1.44" stroke="black" cy="4.32" />
      <circle gorn="0.1.0.2" cx="25.92" r="1.98" id="connector27pin" fill="none" stroke-width="1.44" stroke="black" cy="4.32" />
      <circle gorn="0.1.0.3" cx="4.32" r="1.98" id="connector1pin" fill="none" stroke-width="1.44" stroke="black" cy="11.52" />
      <circle gorn="0.1.0.4" cx="25.92" r="1.98" id="connector26pin" fill="none" stroke-width="1.44" stroke="black" cy="11.52" />
      <circle gorn="0.1.0.5" cx="4.32" r="1.98" id="connector2pin" fill="none" stroke-width="1.44" stroke="black" cy="18.72" />
      <circle gorn="0.1.0.6" cx="25.92" r="1.98" id="connector25pin" fill="none" stroke-width="1.44" stroke="black" cy="18.72" />
      <circle gorn="0.1.0.7" cx="4.32" r="1.98" id="connector3pin" fill="none" stroke-width="1.44" stroke="black" cy="25.92" />
      <circle gorn="0.1.0.8" cx="25.92" r="1.98" id="connector24pin" fill="none" stroke-width="1.44" stroke="black" cy="25.92" />
      <circle gorn="0.1.0.9" cx="4.32" r="1.98" id="connector4pin" fill="none" stroke-width="1.44" stroke="black" cy="33.12" />
      <circle gorn="0.1.0.10" cx="25.92" r="1.98" id="connector23pin" fill="none" stroke-width="1.44" stroke="black" cy="33.12" />
      <circle gorn="0.1.0.11" cx="4.32" r="1.98" id="connector5pin" fill="none" stroke-width="1.44" stroke="black" cy="40.32" />
      <circle gorn="0.1.0.12" cx="25.92" r="1.98" id="connector22pin" fill="none" stroke-width="1.44" stroke="black" cy="40.32" />
      <circle gorn="0.1.0.13" cx="4.32" r="1.98" id="connector6pin" fill="none" stroke-width="1.44" stroke="black" cy="47.52" />
      <circle gorn="0.1.0.14" cx="25.92" r="1.98" id="connector21pin" fill="none" stroke-width="1.44" stroke="black" cy="47.52" />
      <circle gorn="0.1.0.15" cx="4.32" r="1.98" id="connector7pin" fill="none" stroke-width="1.44" stroke="black" cy="54.72" />
      <circle gorn="0.1.0.16" cx="25.92" r="1.98" id="connector20pin" fill="none" stroke-width="1.44" stroke="black" cy="54.72" />
      <circle gorn="0.1.0.17" cx="4.32" r="1.98" id="connector8pin" fill="none" stroke-width="1.44" stroke="black" cy="61.92" />
      <circle gorn="0.1.0.18" cx="25.92" r="1.98" id="connector19pin" fill="none" stroke-width="1.44" stroke="black" cy="61.92" />
      <circle gorn="0.1.0.19" cx="4.32" r="1.98" id="connector9pin" fill="none" stroke-width="1.44" stroke="black" cy="69.12" />
      <circle gorn="0.1.0.20" cx="25.92" r="1.98" id="connector18pin" fill="none" stroke-width="1.44" stroke="black" cy="69.12" />
      <circle gorn="0.1.0.21" cx="4.32" r="1.98" id="connector10pin" fill="none" stroke-width="1.44" stroke="black" cy="76.32" />
      <circle gorn="0.1.0.22" cx="25.92" r="1.98" id="connector17pin" fill="none" stroke-width="1.44" stroke="black" cy="76.32" />
      <circle gorn="0.1.0.23" cx="4.32" r="1.98" id="connector11pin" fill="none" stroke-width="1.44" stroke="black" cy="83.52" />
      <circle gorn="0.1.0.24" cx="25.92" r="1.98" id="connector16pin" fill="none" stroke-width="1.44" stroke="black" cy="83.52" />
      <circle gorn="0.1.0.25" cx="4.32" r="1.98" id="connector12pin" fill="none" stroke-width="1.44" stroke="black" cy="90.72" />
      <circle gorn="0.1.0.26" cx="25.92" r="1.98" id="connector15pin" fill="none" stroke-width="1.44" stroke="black" cy="90.72" />
      <circle gorn="0.1.0.27" cx="4.32" r="1.98" id="connector13pin" fill="none" stroke-width="1.44" stroke="black" cy="97.92" />
      <circle gorn="0.1.0.28" cx="25.92" r="1.98" id="connector14pin" fill="none" stroke-width="1.44" stroke="black" cy="97.92" />
     </g>
    </g>
   </g>
  </g>
 </g>
 <g partID="14024732">
  <g transform="translate(43.5344,81.2896)">
   <g transform="matrix(0,-1,1,0,0,0)">
    <g gorn="0.1" id="copper1" >
     <g gorn="0.1.0" id="copper0" >
      <rect gorn="0.1.0.0" width="3.96" id="square" fill="none" stroke-width="1.44" stroke="black" height="3.96" x="2.34"  y="2.34"/>
      <circle gorn="0.1.0.1" cx="4.32" r="1.98" id="connector0pin" fill="none" stroke-width="1.44" stroke="black" cy="4.32" />
      <circle gorn="0.1.0.2" cx="25.92" r="1.98" id="connector27pin" fill="none" stroke-width="1.44" stroke="black" cy="4.32" />
      <circle gorn="0.1.0.3" cx="4.32" r="1.98" id="connector1pin" fill="none" stroke-width="1.44" stroke="black" cy="11.52" />
      <circle gorn="0.1.0.4" cx="25.92" r="1.98" id="connector26pin" fill="none" stroke-width="1.44" stroke="black" cy="11.52" />
      <circle gorn="0.1.0.5" cx="4.32" r="1.98" id="connector2pin" fill="none" stroke-width="1.44" stroke="black" cy="18.72" />
      <circle gorn="0.1.0.6" cx="25.92" r="1.98" id="connector25pin" fill="none" stroke-width="1.44" stroke="black" cy="18.72" />
      <circle gorn="0.1.0.7" cx="4.32" r="1.98" id="connector3pin" fill="none" stroke-width="1.44" stroke="black" cy="25.92" />
      <circle gorn="0.1.0.8" cx="25.92" r="1.98" id="connector24pin" fill="none" stroke-width="1.44" stroke="black" cy="25.92" />
      <circle gorn="0.1.0.9" cx="4.32" r="1.98" id="connector4pin" fill="none" stroke-width="1.44" stroke="black" cy="33.12" />
      <circle gorn="0.1.0.10" cx="25.92" r="1.98" id="connector23pin" fill="none" stroke-width="1.44" stroke="black" cy="33.12" />
      <circle gorn="0.1.0.11" cx="4.32" r="1.98" id="connector5pin" fill="none" stroke-width="1.44" stroke="black" cy="40.32" />
      <circle gorn="0.1.0.12" cx="25.92" r="1.98" id="connector22pin" fill="none" stroke-width="1.44" stroke="black" cy="40.32" />
      <circle gorn="0.1.0.13" cx="4.32" r="1.98" id="connector6pin" fill="none" stroke-width="1.44" stroke="black" cy="47.52" />
      <circle gorn="0.1.0.14" cx="25.92" r="1.98" id="connector21pin" fill="none" stroke-width="1.44" stroke="black" cy="47.52" />
      <circle gorn="0.1.0.15" cx="4.32" r="1.98" id="connector7pin" fill="none" stroke-width="1.44" stroke="black" cy="54.72" />
      <circle gorn="0.1.0.16" cx="25.92" r="1.98" id="connector20pin" fill="none" stroke-width="1.44" stroke="black" cy="54.72" />
      <circle gorn="0.1.0.17" cx="4.32" r="1.98" id="connector8pin" fill="none" stroke-width="1.44" stroke="black" cy="61.92" />
      <circle gorn="0.1.0.18" cx="25.92" r="1.98" id="connector19pin" fill="none" stroke-width="1.44" stroke="black" cy="61.92" />
      <circle gorn="0.1.0.19" cx="4.32" r="1.98" id="connector9pin" fill="none" stroke-width="1.44" stroke="black" cy="69.12" />
      <circle gorn="0.1.0.20" cx="25.92" r="1.98" id="connector18pin" fill="none" stroke-width="1.44" stroke="black" cy="69.12" />
      <circle gorn="0.1.0.21" cx="4.32" r="1.98" id="connector10pin" fill="none" stroke-width="1.44" stroke="black" cy="76.32" />
      <circle gorn="0.1.0.22" cx="25.92" r="1.98" id="connector17pin" fill="none" stroke-width="1.44" stroke="black" cy="76.32" />
      <circle gorn="0.1.0.23" cx="4.32" r="1.98" id="connector11pin" fill="none" stroke-width="1.44" stroke="black" cy="83.52" />
      <circle gorn="0.1.0.24" cx="25.92" r="1.98" id="connector16pin" fill="none" stroke-width="1.44" stroke="black" cy="83.52" />
      <circle gorn="0.1.0.25" cx="4.32" r="1.98" id="connector12pin" fill="none" stroke-width="1.44" stroke="black" cy="90.72" />
      <circle gorn="0.1.0.26" cx="25.92" r="1.98" id="connector15pin" fill="none" stroke-width="1.44" stroke="black" cy="90.72" />
      <circle gorn="0.1.0.27" cx="4.32" r="1.98" id="connector13pin" fill="none" stroke-width="1.44" stroke="black" cy="97.92" />
      <circle gorn="0.1.0.28" cx="25.92" r="1.98" id="connector14pin" fill="none" stroke-width="1.44" stroke="black" cy="97.92" />
     </g>
    </g>
   </g>
  </g>
 </g>
 <g partID="14050122">
  <g transform="translate(6.4544,19.9456)">
   <g transform="matrix(0,-1,1,0,0,0)">
    <g id="copper1">
     <g id="copper0">
      <rect width="4.32" id="square" fill="none" stroke="black" stroke-width="1.44" height="4.32" x="5.616" y="3.24"/>
      <circle cx="7.776" r="2.16" fill="none" id="connector0pin" stroke="black" stroke-width="1.44" cy="5.4"/>
      <circle cx="7.776" r="2.16" fill="none" id="connector1pin" stroke="black" stroke-width="1.44" cy="12.6"/>
      <circle cx="7.776" r="2.16" fill="none" id="connector2pin" stroke="black" stroke-width="1.44" cy="19.8"/>
      <circle cx="7.776" r="2.16" fill="none" id="connector3pin" stroke="black" stroke-width="1.44" cy="27"/>
      <circle cx="7.776" r="2.16" fill="none" id="connector4pin" stroke="black" stroke-width="1.44" cy="34.2"/>
      <circle cx="7.776" r="2.16" fill="none" id="connector5pin" stroke="black" stroke-width="1.44" cy="41.4"/>
      <circle cx="7.776" r="2.16" fill="none" id="connector6pin" stroke="black" stroke-width="1.44" cy="48.6"/>
      <circle cx="7.776" r="2.16" fill="none" id="connector7pin" stroke="black" stroke-width="1.44" cy="55.8"/>
      <circle cx="7.776" r="2.16" fill="none" id="connector8pin" stroke="black" stroke-width="1.44" cy="63"/>
     </g>
    </g>
   </g>
  </g>
 </g>
 <g partID="14050102">
  <g transform="translate(78.4544,19.9456)">
   <g transform="matrix(0,-1,1,0,0,0)">
    <g id="copper1">
     <g id="copper0">
      <rect width="4.32" id="square" fill="none" stroke="black" stroke-width="1.44" height="4.32" x="5.616" y="3.24"/>
      <circle cx="7.776" r="2.16" fill="none" id="connector0pin" stroke="black" stroke-width="1.44" cy="5.4"/>
      <circle cx="7.776" r="2.16" fill="none" id="connector1pin" stroke="black" stroke-width="1.44" cy="12.6"/>
      <circle cx="7.776" r="2.16" fill="none" id="connector2pin" stroke="black" stroke-width="1.44" cy="19.8"/>
      <circle cx="7.776" r="2.16" fill="none" id="connector3pin" stroke="black" stroke-width="1.44" cy="27"/>
      <circle cx="7.776" r="2.16" fill="none" id="connector4pin" stroke="black" stroke-width="1.44" cy="34.2"/>
      <circle cx="7.776" r="2.16" fill="none" id="connector5pin" stroke="black" stroke-width="1.44" cy="41.4"/>
      <circle cx="7.776" r="2.16" fill="none" id="connector6pin" stroke="black" stroke-width="1.44" cy="48.6"/>
      <circle cx="7.776" r="2.16" fill="none" id="connector7pin" stroke="black" stroke-width="1.44" cy="55.8"/>
      <circle cx="7.776" r="2.16" fill="none" id="connector8pin" stroke="black" stroke-width="1.44" cy="63"/>
     </g>
    </g>
   </g>
  </g>
 </g>
 <g partID="14050082">
  <g transform="translate(150.454,19.9456)">
   <g transform="matrix(0,-1,1,0,0,0)">
    <g id="copper1">
     <g id="copper0">
      <rect width="4.32" id="square" fill="none" stroke="black" stroke-width="1.44" height="4.32" x="5.616" y="3.24"/>
      <circle cx="7.776" r="2.16" fill="none" id="connector0pin" stroke="black" stroke-width="1.44" cy="5.4"/>
      <circle cx="7.776" r="2.16" fill="none" id="connector1pin" stroke="black" stroke-width="1.44" cy="12.6"/>
      <circle cx="7.776" r="2.16" fill="none" id="connector2pin" stroke="black" stroke-width="1.44" cy="19.8"/>
      <circle cx="7.776" r="2.16" fill="none" id="connector3pin" stroke="black" stroke-width="1.44" cy="27"/>
      <circle cx="7.776" r="2.16" fill="none" id="connector4pin" stroke="black" stroke-width="1.44" cy="34.2"/>
      <circle cx="7.776" r="2.16" fill="none" id="connector5pin" stroke="black" stroke-width="1.44" cy="41.4"/>
      <circle cx="7.776" r="2.16" fill="none" id="connector6pin" stroke="black" stroke-width="1.44" cy="48.6"/>
      <circle cx="7.776" r="2.16" fill="none" id="connector7pin" stroke="black" stroke-width="1.44" cy="55.8"/>
      <circle cx="7.776" r="2.16" fill="none" id="connector8pin" stroke="black" stroke-width="1.44" cy="63"/>
     </g>
    </g>
   </g>
  </g>
 </g>
 <g partID="14050062">
  <g transform="translate(222.454,19.9456)">
   <g transform="matrix(0,-1,1,0,0,0)">
    <g id="copper1">
     <g id="copper0">
      <rect width="4.32" id="square" fill="none" stroke="black" stroke-width="1.44" height="4.32" x="5.616" y="3.24"/>
      <circle cx="7.776" r="2.16" fill="none" id="connector0pin" stroke="black" stroke-width="1.44" cy="5.4"/>
      <circle cx="7.776" r="2.16" fill="none" id="connector1pin" stroke="black" stroke-width="1.44" cy="12.6"/>
      <circle cx="7.776" r="2.16" fill="none" id="connector2pin" stroke="black" stroke-width="1.44" cy="19.8"/>
      <circle cx="7.776" r="2.16" fill="none" id="connector3pin" stroke="black" stroke-width="1.44" cy="27"/>
      <circle cx="7.776" r="2.16" fill="none" id="connector4pin" stroke="black" stroke-width="1.44" cy="34.2"/>
      <circle cx="7.776" r="2.16" fill="none" id="connector5pin" stroke="black" stroke-width="1.44" cy="41.4"/>
      <circle cx="7.776" r="2.16" fill="none" id="connector6pin" stroke="black" stroke-width="1.44" cy="48.6"/>
      <circle cx="7.776" r="2.16" fill="none" id="connector7pin" stroke="black" stroke-width="1.44" cy="55.8"/>
      <circle cx="7.776" r="2.16" fill="none" id="connector8pin" stroke="black" stroke-width="1.44" cy="63"/>
     </g>
    </g>
   </g>
  </g>
 </g>
 <g partID="14042032">
  <g transform="translate(6.4544,34.3456)">
   <g transform="matrix(0,-1,1,0,0,0)">
    <g id="copper1">
     <g id="copper0">
      <rect width="4.32" id="square" fill="none" stroke="black" stroke-width="1.44" height="4.32" x="5.616" y="3.24"/>
      <circle cx="7.776" r="2.16" fill="none" id="connector0pin" stroke="black" stroke-width="1.44" cy="5.4"/>
      <circle cx="7.776" r="2.16" fill="none" id="connector1pin" stroke="black" stroke-width="1.44" cy="12.6"/>
      <circle cx="7.776" r="2.16" fill="none" id="connector2pin" stroke="black" stroke-width="1.44" cy="19.8"/>
      <circle cx="7.776" r="2.16" fill="none" id="connector3pin" stroke="black" stroke-width="1.44" cy="27"/>
      <circle cx="7.776" r="2.16" fill="none" id="connector4pin" stroke="black" stroke-width="1.44" cy="34.2"/>
      <circle cx="7.776" r="2.16" fill="none" id="connector5pin" stroke="black" stroke-width="1.44" cy="41.4"/>
      <circle cx="7.776" r="2.16" fill="none" id="connector6pin" stroke="black" stroke-width="1.44" cy="48.6"/>
      <circle cx="7.776" r="2.16" fill="none" id="connector7pin" stroke="black" stroke-width="1.44" cy="55.8"/>
      <circle cx="7.776" r="2.16" fill="none" id="connector8pin" stroke="black" stroke-width="1.44" cy="63"/>
     </g>
    </g>
   </g>
  </g>
 </g>
 <g partID="14031942">
  <g transform="translate(78.4544,34.3456)">
   <g transform="matrix(0,-1,1,0,0,0)">
    <g id="copper1">
     <g id="copper0">
      <rect width="4.32" id="square" fill="none" stroke="black" stroke-width="1.44" height="4.32" x="5.616" y="3.24"/>
      <circle cx="7.776" r="2.16" fill="none" id="connector0pin" stroke="black" stroke-width="1.44" cy="5.4"/>
      <circle cx="7.776" r="2.16" fill="none" id="connector1pin" stroke="black" stroke-width="1.44" cy="12.6"/>
      <circle cx="7.776" r="2.16" fill="none" id="connector2pin" stroke="black" stroke-width="1.44" cy="19.8"/>
      <circle cx="7.776" r="2.16" fill="none" id="connector3pin" stroke="black" stroke-width="1.44" cy="27"/>
      <circle cx="7.776" r="2.16" fill="none" id="connector4pin" stroke="black" stroke-width="1.44" cy="34.2"/>
      <circle cx="7.776" r="2.16" fill="none" id="connector5pin" stroke="black" stroke-width="1.44" cy="41.4"/>
      <circle cx="7.776" r="2.16" fill="none" id="connector6pin" stroke="black" stroke-width="1.44" cy="48.6"/>
      <circle cx="7.776" r="2.16" fill="none" id="connector7pin" stroke="black" stroke-width="1.44" cy="55.8"/>
      <circle cx="7.776" r="2.16" fill="none" id="connector8pin" stroke="black" stroke-width="1.44" cy="63"/>
     </g>
    </g>
   </g>
  </g>
 </g>
 <g partID="14024852">
  <g transform="translate(150.454,34.3456)">
   <g transform="matrix(0,-1,1,0,0,0)">
    <g id="copper1">
     <g id="copper0">
      <rect width="4.32" id="square" fill="none" stroke="black" stroke-width="1.44" height="4.32" x="5.616" y="3.24"/>
      <circle cx="7.776" r="2.16" fill="none" id="connector0pin" stroke="black" stroke-width="1.44" cy="5.4"/>
      <circle cx="7.776" r="2.16" fill="none" id="connector1pin" stroke="black" stroke-width="1.44" cy="12.6"/>
      <circle cx="7.776" r="2.16" fill="none" id="connector2pin" stroke="black" stroke-width="1.44" cy="19.8"/>
      <circle cx="7.776" r="2.16" fill="none" id="connector3pin" stroke="black" stroke-width="1.44" cy="27"/>
      <circle cx="7.776" r="2.16" fill="none" id="connector4pin" stroke="black" stroke-width="1.44" cy="34.2"/>
      <circle cx="7.776" r="2.16" fill="none" id="connector5pin" stroke="black" stroke-width="1.44" cy="41.4"/>
      <circle cx="7.776" r="2.16" fill="none" id="connector6pin" stroke="black" stroke-width="1.44" cy="48.6"/>
      <circle cx="7.776" r="2.16" fill="none" id="connector7pin" stroke="black" stroke-width="1.44" cy="55.8"/>
      <circle cx="7.776" r="2.16" fill="none" id="connector8pin" stroke="black" stroke-width="1.44" cy="63"/>
     </g>
    </g>
   </g>
  </g>
 </g>
 <g partID="14024812">
  <g transform="translate(222.454,34.3456)">
   <g transform="matrix(0,-1,1,0,0,0)">
    <g id="copper1">
     <g id="copper0">
      <rect width="4.32" id="square" fill="none" stroke="black" stroke-width="1.44" height="4.32" x="5.616" y="3.24"/>
      <circle cx="7.776" r="2.16" fill="none" id="connector0pin" stroke="black" stroke-width="1.44" cy="5.4"/>
      <circle cx="7.776" r="2.16" fill="none" id="connector1pin" stroke="black" stroke-width="1.44" cy="12.6"/>
      <circle cx="7.776" r="2.16" fill="none" id="connector2pin" stroke="black" stroke-width="1.44" cy="19.8"/>
      <circle cx="7.776" r="2.16" fill="none" id="connector3pin" stroke="black" stroke-width="1.44" cy="27"/>
      <circle cx="7.776" r="2.16" fill="none" id="connector4pin" stroke="black" stroke-width="1.44" cy="34.2"/>
      <circle cx="7.776" r="2.16" fill="none" id="connector5pin" stroke="black" stroke-width="1.44" cy="41.4"/>
      <circle cx="7.776" r="2.16" fill="none" id="connector6pin" stroke="black" stroke-width="1.44" cy="48.6"/>
      <circle cx="7.776" r="2.16" fill="none" id="connector7pin" stroke="black" stroke-width="1.44" cy="55.8"/>
      <circle cx="7.776" r="2.16" fill="none" id="connector8pin" stroke="black" stroke-width="1.44" cy="63"/>
     </g>
    </g>
   </g>
  </g>
 </g>
 <g partID="14025921">
  <g transform="translate(246.437,88.3522)">
   <g id="copper1" >
    <circle cx="3.01733" r="0.992124" fill="none" id="connector0pin" stroke-width="0.850392" stroke="black" cy="3.01733" />
   </g>
  </g>
 </g>
 <g partID="14025981">
  <g transform="translate(253.637,102.752)">
   <g id="copper1" >
    <circle cx="3.01733" r="0.992124" fill="none" id="connector0pin" stroke-width="0.850392" stroke="black" cy="3.01733" />
   </g>
  </g>
 </g>
 <g partID="14026041">
  <g transform="translate(268.037,97.352)">
   <g id="copper1" >
    <circle cx="3.01733" r="0.992124" fill="none" id="connector0pin" stroke-width="0.850392" stroke="black" cy="3.01733" />
   </g>
  </g>
 </g>
 <g partID="14030281">
  <g transform="translate(172.637,68.5522)">
   <g id="copper1" >
    <circle cx="3.01733" r="0.992124" fill="none" id="connector0pin" stroke-width="0.850392" stroke="black" cy="3.01733" />
   </g>
  </g>
 </g>
 <g partID="14033481">
  <g transform="translate(169.037,64.9522)">
   <g id="copper1" >
    <circle cx="3.01733" r="0.992124" fill="none" id="connector0pin" stroke-width="0.850392" stroke="black" cy="3.01733" />
   </g>
  </g>
 </g>
 <g partID="14033961">
  <g transform="translate(165.437,61.3522)">
   <g id="copper1" >
    <circle cx="3.01733" r="0.992124" fill="none" id="connector0pin" stroke-width="0.850392" stroke="black" cy="3.01733" />
   </g>
  </g>
 </g>
 <g partID="14034161">
  <g transform="translate(161.837,54.1522)">
   <g id="copper1" >
    <circle cx="3.01733" r="0.992124" fill="none" id="connector0pin" stroke-width="0.850392" stroke="black" cy="3.01733" />
   </g>
  </g>
 </g>
 <g partID="14044731">
  <g transform="translate(158.237,41.5522)">
   <g id="copper1" >
    <circle cx="3.01733" r="0.992124" fill="none" id="connector0pin" stroke-width="0.850392" stroke="black" cy="3.01733" />
   </g>
  </g>
 </g>
 <g partID="14044862">
  <g transform="translate(150.814,57.5296)">
   <g id="copper1" >
    <g id="copper0" >
     <circle cx="5.04" r="2.088" fill="none" id="connector0pin" stroke="black" stroke-width="1.44" cy="5.04" />
     <circle cx="5.04" r="2.088" fill="none" id="connector1pin" stroke="black" stroke-width="1.44" cy="12.24" />
     <circle cx="5.04" r="2.088" fill="none" id="connector2pin" stroke="black" stroke-width="1.44" cy="19.44" />
    </g>
   </g>
  </g>
 </g>
 <g partID="14044842">
  <g transform="translate(143.614,57.5296)">
   <g id="copper1" >
    <g id="copper0" >
     <circle cx="5.04" r="2.088" fill="none" id="connector0pin" stroke="black" stroke-width="1.44" cy="5.04" />
     <circle cx="5.04" r="2.088" fill="none" id="connector1pin" stroke="black" stroke-width="1.44" cy="12.24" />
     <circle cx="5.04" r="2.088" fill="none" id="connector2pin" stroke="black" stroke-width="1.44" cy="19.44" />
    </g>
   </g>
  </g>
 </g>
 <g partID="14045101">
  <g transform="translate(124.088,66.8517)">
   <g id="copper1" >
    <circle cx="3.01733" r="0.992124" fill="none" id="connector0pin" stroke-width="0.850392" stroke="black" cy="3.01733" />
   </g>
  </g>
 </g>
 <g partID="14046861">
  <g transform="translate(152.837,102.752)">
   <g id="copper1" >
    <circle cx="3.01733" r="0.992124" fill="none" id="connector0pin" stroke-width="0.850392" stroke="black" cy="3.01733" />
   </g>
  </g>
 </g>
 <g partID="14641302">
  <g transform="translate(294.814,57.5296)">
   <g id="copper1" >
    <g id="copper0" >
     <circle cx="5.04" r="2.088" fill="none" id="connector0pin" stroke="black" stroke-width="1.44" cy="5.04" />
     <circle cx="5.04" r="2.088" fill="none" id="connector1pin" stroke="black" stroke-width="1.44" cy="12.24" />
     <circle cx="5.04" r="2.088" fill="none" id="connector2pin" stroke="black" stroke-width="1.44" cy="19.44" />
     <circle cx="5.04" r="2.088" fill="none" id="connector3pin" stroke="black" stroke-width="1.44" cy="26.64" />
     <circle cx="5.04" r="2.088" fill="none" id="connector4pin" stroke="black" stroke-width="1.44" cy="33.84" />
     <circle cx="5.04" r="2.088" fill="none" id="connector5pin" stroke="black" stroke-width="1.44" cy="41.04" />
     <circle cx="5.04" r="2.088" fill="none" id="connector6pin" stroke="black" stroke-width="1.44" cy="48.24" />
    </g>
   </g>
  </g>
 </g>
 <g partID="14638312">
  <g transform="translate(5.9144,57.5296)">
   <g id="copper1" >
    <g id="copper0" >
     <circle cx="5.04" r="2.088" fill="none" id="connector0pin" stroke="black" stroke-width="1.44" cy="5.04" />
     <circle cx="5.04" r="2.088" fill="none" id="connector1pin" stroke="black" stroke-width="1.44" cy="12.24" />
     <circle cx="5.04" r="2.088" fill="none" id="connector2pin" stroke="black" stroke-width="1.44" cy="19.44" />
     <circle cx="5.04" r="2.088" fill="none" id="connector3pin" stroke="black" stroke-width="1.44" cy="26.64" />
     <circle cx="5.04" r="2.088" fill="none" id="connector4pin" stroke="black" stroke-width="1.44" cy="33.84" />
     <circle cx="5.04" r="2.088" fill="none" id="connector5pin" stroke="black" stroke-width="1.44" cy="41.04" />
     <circle cx="5.04" r="2.088" fill="none" id="connector6pin" stroke="black" stroke-width="1.44" cy="48.24" />
    </g>
   </g>
  </g>
 </g>
 <g partID="14047381">
  <g transform="translate(102.437,88.3522)">
   <g id="copper1" >
    <circle cx="3.01733" r="0.992124" fill="none" id="connector0pin" stroke-width="0.850392" stroke="black" cy="3.01733" />
   </g>
  </g>
 </g>
 <g partID="14047641">
  <g transform="translate(109.637,102.752)">
   <g id="copper1" >
    <circle cx="3.01733" r="0.992124" fill="none" id="connector0pin" stroke-width="0.850392" stroke="black" cy="3.01733" />
   </g>
  </g>
 </g>
 <g partID="14048291">
  <g transform="translate(123.137,97.352)">
   <g id="copper1" >
    <circle cx="3.01733" r="0.992124" fill="none" id="connector0pin" stroke-width="0.850392" stroke="black" cy="3.01733" />
   </g>
  </g>
 </g>
 <g partID="14048351">
  <g transform="translate(131.237,93.752)">
   <g id="copper1" >
    <circle cx="3.01733" r="0.992124" fill="none" id="connector0pin" stroke-width="0.850392" stroke="black" cy="3.01733" />
   </g>
  </g>
 </g>
 <g partID="14048411">
  <g transform="translate(275.237,93.752)">
   <g id="copper1" >
    <circle cx="3.01733" r="0.992124" fill="none" id="connector0pin" stroke-width="0.850392" stroke="black" cy="3.01733" />
   </g>
  </g>
 </g>
 <g partID="14056952">
  <g transform="translate(102.561,81.2896)">
   <g id="copper1" >
    <circle cx="2.88" r="1.8" id="connector0pin" fill="none" stroke="black" stroke-width="1.44" cy="2.88" />
    <circle cx="10.0933" r="1.8" id="connector1pin" fill="none" stroke="black" stroke-width="1.44" cy="2.88" />
   </g>
  </g>
 </g>
 <g partID="14056982">
  <g transform="translate(246.561,81.2896)">
   <g id="copper1" >
    <circle cx="2.88" r="1.8" id="connector0pin" fill="none" stroke="black" stroke-width="1.44" cy="2.88" />
    <circle cx="10.0933" r="1.8" id="connector1pin" fill="none" stroke="black" stroke-width="1.44" cy="2.88" />
   </g>
  </g>
 </g>
 <g partID="14068731">
  <g transform="translate(28.6368,63.1522)">
   <g id="copper1" >
    <circle cx="3.01733" r="0.992124" fill="none" id="connector0pin" stroke-width="0.850392" stroke="black" cy="3.01733" />
   </g>
  </g>
 </g>
 <g partID="14069211">
  <g transform="translate(25.0368,55.9522)">
   <g id="copper1" >
    <circle cx="3.01733" r="0.992124" fill="none" id="connector0pin" stroke-width="0.850392" stroke="black" cy="3.01733" />
   </g>
  </g>
 </g>
 <g partID="14069941">
  <g transform="translate(21.4368,50.5522)">
   <g id="copper1" >
    <circle cx="3.01733" r="0.992124" fill="none" id="connector0pin" stroke-width="0.850392" stroke="black" cy="3.01733" />
   </g>
  </g>
 </g>
 <g partID="14087191">
  <g transform="translate(142.519,34.8342)">
   <g id="copper1" >
    <circle cx="6.13543" r="4.53543" fill="black" id="nonconn0" stroke-width="0" stroke="black" cy="6.13543" />
   </g>
  </g>
 </g>
 <g partID="14087171">
  <g transform="translate(293.719,34.8342)">
   <g id="copper1" >
    <circle cx="6.13543" r="4.53543" fill="black" id="nonconn0" stroke-width="0" stroke="black" cy="6.13543" />
   </g>
  </g>
 </g>
 <g partID="14086101">
  <g transform="translate(5.71896,34.8342)">
   <g id="copper1" >
    <circle cx="6.13543" r="4.53543" fill="black" id="nonconn0" stroke-width="0" stroke="black" cy="6.13543" />
   </g>
  </g>
 </g>
 <g partID="14089752">
  <g transform="translate(176.554,74.2696)">
   <g transform="matrix(0,1,-1,0,0,0)">
    <g id="copper1" >
     <!--  <rect width="55" x="10" y="35" fill="none" height="55" stroke="rgb(255, 191, 0)" stroke-width="20" /> -->
     <circle cx="2.7" r="1.98" fill="none" id="connector0pin" stroke="black" stroke-width="1.44" cy="4.5" />
     <circle cx="9.9" r="1.98" fill="none" id="connector1pin" stroke="black" stroke-width="1.44" cy="4.5" />
    </g>
   </g>
  </g>
 </g>
 <g partID="14089722">
  <g transform="translate(169.354,72.4696)">
   <g transform="matrix(0,1,-1,0,0,0)">
    <g id="copper1" >
     <!-- <rect width="55" x="35" y="35" fill="none" height="55" stroke="rgb(255, 191, 0)" stroke-width="20" /> -->
     <circle cx="4.5" r="1.98" fill="none" id="connector0pin" stroke="black" stroke-width="1.44" cy="4.5" />
     <circle cx="11.7" r="1.98" fill="none" id="connector1pin" stroke="black" stroke-width="1.44" cy="4.5" />
    </g>
   </g>
  </g>
 </g>
 <g partID="14092051">
  <g transform="translate(161.874,93.72)">
   <g id="copper1" >
    <circle cx="3.01733" r="0.992124" fill="none" id="connector0pin" stroke-width="0.850392" stroke="black" cy="3.01733" />
   </g>
  </g>
 </g>
 <g partID="14092231">
  <g transform="translate(169.041,97.304)">
   <g id="copper1" >
    <circle cx="3.01733" r="0.992124" fill="none" id="connector0pin" stroke-width="0.850392" stroke="black" cy="3.01733" />
   </g>
  </g>
 </g>
 <g partID="14654450">
  <line x1="112.087" x2="12.3224" stroke-linecap="round" y1="105.77" stroke="black" stroke-width="3.456" y2="105.77"/>
 </g>
 <g partID="14653990">
  <line x1="298.486" x2="257.221" stroke-linecap="round" y1="105.77" stroke="black" stroke-width="3.456" y2="105.769"/>
 </g>
 <g partID="14668060">
  <line x1="292.615" x2="292.615" stroke-linecap="round" y1="80.6121" stroke="black" stroke-width="3.456" y2="77.0162"/>
 </g>
 <g partID="14675300">
  <line x1="292.654" x2="292.654" stroke-linecap="round" y1="25.2016" stroke="black" stroke-width="3.456" y2="13.5376"/>
 </g>
 <g partID="14667750">
  <line x1="292.615" x2="292.653" stroke-linecap="round" y1="77.0162" stroke="black" stroke-width="3.456" y2="27.9376"/>
 </g>
 <g partID="14667180">
  <line x1="292.615" x2="298.486" stroke-linecap="round" y1="77.0162" stroke="black" stroke-width="3.456" y2="76.9784"/>
 </g>
 <g partID="14666910">
  <line x1="282.786" x2="292.615" stroke-linecap="round" y1="91.3999" stroke="black" stroke-width="3.456" y2="80.6122"/>
 </g>
 <g partID="14666640">
  <line x1="250.021" x2="282.786" stroke-linecap="round" y1="91.3701" stroke="black" stroke-width="3.456" y2="91.3999"/>
 </g>
 <g partID="14661090">
  <line x1="19.0777" x2="12.3224" stroke-linecap="round" y1="77.0054" stroke="black" stroke-width="3.456" y2="76.9756"/>
 </g>
 <g partID="14660800">
  <line x1="31.6208" x2="19.0778" stroke-linecap="round" y1="91.3929" stroke="black" stroke-width="3.456" y2="77.0054"/>
 </g>
 <g partID="14660510">
  <line x1="104.887" x2="31.6209" stroke-linecap="round" y1="91.3698" stroke="black" stroke-width="3.456" y2="91.393"/>
 </g>
 <g partID="14669480">
  <line x1="4.70096" x2="8.29689" stroke-linecap="round" y1="8.57367" stroke="black" stroke-width="3.456" y2="4.97774"/>
 </g>
 <g partID="14669240">
  <line x1="306.998" x2="306.998" stroke-linecap="round" y1="12.1696" stroke="black" stroke-width="3.456" y2="66.2284"/>
 </g>
 <g partID="14669110">
  <line x1="76.6192" x2="76.6477" stroke-linecap="round" y1="4.97774" stroke="black" stroke-width="3.456" y2="10.8016"/>
 </g>
 <g partID="14669020">
  <line x1="76.6192" x2="148.658" stroke-linecap="round" y1="4.97774" stroke="black" stroke-width="3.456" y2="4.97774"/>
 </g>
 <g partID="14668930">
  <line x1="148.658" x2="148.655" stroke-linecap="round" y1="4.97774" stroke="black" stroke-width="3.456" y2="10.8016"/>
 </g>
 <g partID="14668880">
  <line x1="148.658" x2="299.807" stroke-linecap="round" y1="4.97774" stroke="black" stroke-width="3.456" y2="4.97774"/>
 </g>
 <g partID="14668830">
  <line x1="306.998" x2="301.08" stroke-linecap="round" y1="66.2284" stroke="black" stroke-width="3.456" y2="69.1621"/>
 </g>
 <g partID="14668780">
  <line x1="299.807" x2="306.999" stroke-linecap="round" y1="4.97774" stroke="black" stroke-width="3.456" y2="12.1696"/>
 </g>
 <g partID="14668730">
  <line x1="8.29688" x2="76.6195" stroke-linecap="round" y1="4.97774" stroke="black" stroke-width="3.456" y2="4.97774"/>
 </g>
 <g partID="14668680">
  <line x1="9.76401" x2="4.70099" stroke-linecap="round" y1="69.0955" stroke="black" stroke-width="3.456" y2="66.2284"/>
 </g>
 <g partID="14668670">
  <line x1="4.70096" x2="4.70096" stroke-linecap="round" y1="66.2284" stroke="black" stroke-width="3.456" y2="8.57368"/>
 </g>
 <g partID="14025010">
  <line x1="155.814" x2="155.846" stroke-linecap="round" y1="19.3898" stroke="black" stroke-width="3.456" y2="25.1296"/>
 </g>
 <g partID="14677430">
  <line x1="224.228" x2="155.815" stroke-linecap="round" y1="19.3894" stroke="black" stroke-width="3.456" y2="19.3898"/>
 </g>
 <g partID="14024940">
  <line x1="227.891" x2="224.227" stroke-linecap="round" y1="21.2213" stroke="black" stroke-width="3.456" y2="19.3894"/>
 </g>
 <g partID="14024870">
  <line x1="227.864" x2="227.892" stroke-linecap="round" y1="25.1296" stroke="black" stroke-width="3.456" y2="21.2213"/>
 </g>
 <g partID="14091370">
  <line x1="164.324" x2="134.821" stroke-linecap="round" y1="96.7382" stroke="black" stroke-width="1.728" y2="96.769"/>
 </g>
 <g partID="14025150">
  <line x1="277.687" x2="165.458" stroke-linecap="round" y1="96.7694" stroke="black" stroke-width="1.728" y2="96.7378"/>
 </g>
 <g partID="14091520">
  <line x1="171.491" x2="126.722" stroke-linecap="round" y1="100.322" stroke="black" stroke-width="1.728" y2="100.369"/>
 </g>
 <g partID="14025360">
  <line x1="270.487" x2="172.625" stroke-linecap="round" y1="100.369" stroke="black" stroke-width="1.728" y2="100.321"/>
 </g>
 <g partID="14046300">
  <line x1="155.287" x2="113.221" stroke-linecap="round" y1="105.77" stroke="black" stroke-width="3.456" y2="105.77"/>
 </g>
 <g partID="14025570">
  <line x1="256.087" x2="156.421" stroke-linecap="round" y1="105.77" stroke="black" stroke-width="3.456" y2="105.77"/>
 </g>
 <g partID="14025780">
  <line x1="248.887" x2="106.021" stroke-linecap="round" y1="91.3696" stroke="black" stroke-width="3.456" y2="91.3696"/>
 </g>
 <g partID="14030140">
  <line x1="220.661" x2="176.221" stroke-linecap="round" y1="71.53" stroke="black" stroke-width="1.728" y2="71.5691"/>
 </g>
 <g partID="14030070">
  <line x1="220.656" x2="220.661" stroke-linecap="round" y1="75.7096" stroke="black" stroke-width="1.728" y2="71.53"/>
 </g>
 <g partID="14031060">
  <line x1="227.873" x2="172.621" stroke-linecap="round" y1="67.924" stroke="black" stroke-width="1.728" y2="67.9691"/>
 </g>
 <g partID="14030830">
  <line x1="227.857" x2="227.873" stroke-linecap="round" y1="75.7096" stroke="black" stroke-width="1.728" y2="67.924"/>
 </g>
 <g partID="14030990">
  <line x1="235.085" x2="169.021" stroke-linecap="round" y1="64.4105" stroke="black" stroke-width="1.728" y2="64.37"/>
 </g>
 <g partID="14030900">
  <line x1="235.057" x2="235.085" stroke-linecap="round" y1="75.7096" stroke="black" stroke-width="1.728" y2="64.4105"/>
 </g>
 <g partID="14032670">
  <line x1="170.269" x2="165.325" stroke-linecap="round" y1="60.8045" stroke="black" stroke-width="1.728" y2="57.4856"/>
 </g>
 <g partID="14031730">
  <line x1="242.297" x2="170.269" stroke-linecap="round" y1="60.8045" stroke="black" stroke-width="1.728" y2="60.8045"/>
 </g>
 <g partID="14031660">
  <line x1="242.258" x2="242.297" stroke-linecap="round" y1="75.7096" stroke="black" stroke-width="1.728" y2="60.8045"/>
 </g>
 <g partID="14043840">
  <line x1="105.454" x2="119.92" stroke-linecap="round" y1="71.53" stroke="black" stroke-width="1.728" y2="62.4661"/>
 </g>
 <g partID="14043650">
  <line x1="119.92" x2="119.866" stroke-linecap="round" y1="62.4661" stroke="black" stroke-width="1.728" y2="56.6296"/>
 </g>
 <g partID="14042110">
  <line x1="105.454" x2="105.453" stroke-linecap="round" y1="75.7096" stroke="black" stroke-width="1.728" y2="71.53"/>
 </g>
 <g partID="14042220">
  <line x1="250.153" x2="263.155" stroke-linecap="round" y1="75.9212" stroke="black" stroke-width="1.728" y2="56.418"/>
 </g>
 <g partID="14042560">
  <line x1="141.476" x2="119.92" stroke-linecap="round" y1="62.4661" stroke="black" stroke-width="1.728" y2="62.4661"/>
 </g>
 <g partID="14042370">
  <line x1="141.458" x2="141.476" stroke-linecap="round" y1="56.6296" stroke="black" stroke-width="1.728" y2="62.4661"/>
 </g>
 <g partID="14079170">
  <line x1="264.711" x2="256.682" stroke-linecap="round" y1="60.7261" stroke="black" stroke-width="1.728" y2="73.3431"/>
 </g>
 <g partID="14043160">
  <line x1="256.682" x2="256.664" stroke-linecap="round" y1="73.3431" stroke="black" stroke-width="1.728" y2="75.7097"/>
 </g>
 <g partID="14043050">
  <line x1="281.916" x2="264.711" stroke-linecap="round" y1="60.7261" stroke="black" stroke-width="1.728" y2="60.7261"/>
 </g>
 <g partID="14042940">
  <line x1="284.76" x2="281.916" stroke-linecap="round" y1="56.4209" stroke="black" stroke-width="1.728" y2="60.7261"/>
 </g>
 <g partID="14077210">
  <line x1="272.809" x2="161.821" stroke-linecap="round" y1="44.5312" stroke="black" stroke-width="1.728" y2="44.5694"/>
 </g>
 <g partID="14044380">
  <line x1="278.264" x2="272.809" stroke-linecap="round" y1="51.7432" stroke="black" stroke-width="1.728" y2="44.5312"/>
 </g>
 <g partID="14044310">
  <line x1="278.258" x2="278.264" stroke-linecap="round" y1="54.1096" stroke="black" stroke-width="1.728" y2="51.7432"/>
 </g>
 <g partID="14077100">
  <line x1="267.515" x2="130.696" stroke-linecap="round" y1="48.109" stroke="black" stroke-width="1.728" y2="48.1372"/>
 </g>
 <g partID="14076990">
  <line x1="127.09" x2="127.067" stroke-linecap="round" y1="51.7432" stroke="black" stroke-width="1.728" y2="54.1096"/>
 </g>
 <g partID="14044660">
  <line x1="130.695" x2="127.089" stroke-linecap="round" y1="48.1372" stroke="black" stroke-width="1.728" y2="51.7432"/>
 </g>
 <g partID="14044590">
  <line x1="271.052" x2="267.515" stroke-linecap="round" y1="51.7432" stroke="black" stroke-width="1.728" y2="48.109"/>
 </g>
 <g partID="14044520">
  <line x1="271.054" x2="271.052" stroke-linecap="round" y1="54.1096" stroke="black" stroke-width="1.728" y2="51.7432"/>
 </g>
 <g partID="14044880">
  <line x1="147.286" x2="127.672" stroke-linecap="round" y1="69.7759" stroke="black" stroke-width="1.728" y2="69.8664"/>
 </g>
 <g partID="14045200">
  <line x1="141.476" x2="147.287" stroke-linecap="round" y1="62.4661" stroke="black" stroke-width="1.728" y2="62.5499"/>
 </g>
 <g partID="14045430">
  <line x1="150.022" x2="154.486" stroke-linecap="round" y1="62.5696" stroke="black" stroke-width="1.728" y2="62.5696"/>
 </g>
 <g partID="14046680">
  <line x1="154.486" x2="150.022" stroke-linecap="round" y1="76.9696" stroke="black" stroke-width="1.728" y2="76.9696"/>
 </g>
 <g partID="14048580">
  <line x1="16.3109" x2="12.3224" stroke-linecap="round" y1="91.3929" stroke="black" stroke-width="1.728" y2="91.3755"/>
 </g>
 <g partID="14639070">
  <line x1="22.6744" x2="16.3107" stroke-linecap="round" y1="99.5088" stroke="black" stroke-width="1.728" y2="91.3928"/>
 </g>
 <g partID="14048470">
  <line x1="125.587" x2="22.6744" stroke-linecap="round" y1="100.365" stroke="black" stroke-width="1.728" y2="99.5089"/>
 </g>
 <g partID="14645000">
  <line x1="17.2332" x2="12.3224" stroke-linecap="round" y1="84.1992" stroke="black" stroke-width="1.728" y2="84.1761"/>
 </g>
 <g partID="14048910">
  <line x1="27.1936" x2="17.233" stroke-linecap="round" y1="95.912" stroke="black" stroke-width="1.728" y2="84.1991"/>
 </g>
 <g partID="14048800">
  <line x1="133.687" x2="27.1944" stroke-linecap="round" y1="96.7651" stroke="black" stroke-width="1.728" y2="95.9123"/>
 </g>
 <g partID="14050140">
  <line x1="12.7174" x2="17.2294" stroke-linecap="round" y1="25.4168" stroke="black" stroke-width="3.456" y2="19.3898"/>
 </g>
 <g partID="14051450">
  <line x1="83.8491" x2="83.8279" stroke-linecap="round" y1="25.1296" stroke="black" stroke-width="3.456" y2="19.3898"/>
 </g>
 <g partID="14051740">
  <line x1="155.814" x2="83.828" stroke-linecap="round" y1="19.3898" stroke="black" stroke-width="3.456" y2="19.3898"/>
 </g>
 <g partID="14052660">
  <line x1="83.828" x2="17.2295" stroke-linecap="round" y1="19.3898" stroke="black" stroke-width="3.456" y2="19.3898"/>
 </g>
 <g partID="14667600">
  <line x1="296.211" x2="298.487" stroke-linecap="round" y1="91.3999" stroke="black" stroke-width="1.728" y2="91.381"/>
 </g>
 <g partID="14055280">
  <line x1="289.085" x2="296.211" stroke-linecap="round" y1="100.338" stroke="black" stroke-width="1.728" y2="91.3999"/>
 </g>
 <g partID="14054980">
  <line x1="271.621" x2="289.085" stroke-linecap="round" y1="100.369" stroke="black" stroke-width="1.728" y2="100.338"/>
 </g>
 <g partID="14667450">
  <line x1="296.211" x2="298.487" stroke-linecap="round" y1="84.2081" stroke="black" stroke-width="1.728" y2="84.1841"/>
 </g>
 <g partID="14055580">
  <line x1="285.474" x2="296.211" stroke-linecap="round" y1="96.8112" stroke="black" stroke-width="1.728" y2="84.2081"/>
 </g>
 <g partID="14055430">
  <line x1="278.821" x2="285.475" stroke-linecap="round" y1="96.7729" stroke="black" stroke-width="1.728" y2="96.8115"/>
 </g>
 <g partID="14064210">
  <line x1="249.443" x2="249.452" stroke-linecap="round" y1="83.0896" stroke="black" stroke-width="3.456" y2="78.2296"/>
 </g>
 <g partID="14064320">
  <line x1="249.453" x2="249.443" stroke-linecap="round" y1="90.8027" stroke="black" stroke-width="3.456" y2="85.2496"/>
 </g>
 <g partID="14084340">
  <line x1="37.0232" x2="32.0548" stroke-linecap="round" y1="71.5598" stroke="black" stroke-width="1.728" y2="66.5713"/>
 </g>
 <g partID="14068590">
  <line x1="74.8184" x2="37.0228" stroke-linecap="round" y1="71.5589" stroke="black" stroke-width="1.728" y2="71.5598"/>
 </g>
 <g partID="14068520">
  <line x1="76.6024" x2="74.8182" stroke-linecap="round" y1="73.3431" stroke="black" stroke-width="1.728" y2="71.5589"/>
 </g>
 <g partID="14068310">
  <line x1="76.6364" x2="76.6026" stroke-linecap="round" y1="75.7097" stroke="black" stroke-width="1.728" y2="73.3431"/>
 </g>
 <g partID="14633960">
  <line x1="31.6688" x2="28.6212" stroke-linecap="round" y1="58.9872" stroke="black" stroke-width="1.728" y2="58.9724"/>
 </g>
 <g partID="14084230">
  <line x1="39.7456" x2="31.6691" stroke-linecap="round" y1="67.9862" stroke="black" stroke-width="1.728" y2="58.9872"/>
 </g>
 <g partID="14068930">
  <line x1="80.2984" x2="39.7451" stroke-linecap="round" y1="67.9904" stroke="black" stroke-width="1.728" y2="67.9861"/>
 </g>
 <g partID="14068860">
  <line x1="83.8672" x2="80.2987" stroke-linecap="round" y1="73.3431" stroke="black" stroke-width="1.728" y2="67.9904"/>
 </g>
 <g partID="14068790">
  <line x1="83.8588" x2="83.867" stroke-linecap="round" y1="75.7096" stroke="black" stroke-width="1.728" y2="73.3431"/>
 </g>
 <g partID="14069870">
  <line x1="85.6512" x2="42.4682" stroke-linecap="round" y1="64.422" stroke="black" stroke-width="1.728" y2="64.3274"/>
 </g>
 <g partID="14634030">
  <line x1="31.6688" x2="25.0212" stroke-linecap="round" y1="53.5902" stroke="black" stroke-width="1.728" y2="53.5712"/>
 </g>
 <g partID="14069800">
  <line x1="42.468" x2="31.6686" stroke-linecap="round" y1="64.3274" stroke="black" stroke-width="1.728" y2="53.5902"/>
 </g>
 <g partID="14069520">
  <line x1="91.004" x2="85.6513" stroke-linecap="round" y1="71.5589" stroke="black" stroke-width="1.728" y2="64.422"/>
 </g>
 <g partID="14069450">
  <line x1="91.0426" x2="91.0039" stroke-linecap="round" y1="75.7097" stroke="black" stroke-width="1.728" y2="71.5589"/>
 </g>
 <g partID="14070280">
  <line x1="19.0285" x2="19.0475" stroke-linecap="round" y1="31.9631" stroke="black" stroke-width="1.728" y2="28.0096"/>
 </g>
 <g partID="14070210">
  <line x1="45.124" x2="19.0289" stroke-linecap="round" y1="60.8051" stroke="black" stroke-width="1.728" y2="31.9631"/>
 </g>
 <g partID="14070140">
  <line x1="91.004" x2="45.1238" stroke-linecap="round" y1="60.7261" stroke="black" stroke-width="1.728" y2="60.8051"/>
 </g>
 <g partID="14070070">
  <line x1="98.268" x2="91.0036" stroke-linecap="round" y1="71.5589" stroke="black" stroke-width="1.728" y2="60.7261"/>
 </g>
 <g partID="14070000">
  <line x1="98.2576" x2="98.2682" stroke-linecap="round" y1="75.7096" stroke="black" stroke-width="1.728" y2="71.5589"/>
 </g>
 <g partID="14040910">
  <line x1="122.52" x2="140.506" stroke-linecap="round" y1="48.2019" stroke="black" stroke-width="1.728" y2="27.6532"/>
 </g>
 <g partID="14084040">
  <line x1="101.838" x2="122.521" stroke-linecap="round" y1="48.2019" stroke="black" stroke-width="1.728" y2="48.2019"/>
 </g>
 <g partID="14083070">
  <line x1="98.2832" x2="101.838" stroke-linecap="round" y1="51.7566" stroke="black" stroke-width="1.728" y2="48.2019"/>
 </g>
 <g partID="14032450">
  <line x1="98.2645" x2="98.2834" stroke-linecap="round" y1="54.1096" stroke="black" stroke-width="1.728" y2="51.7566"/>
 </g>
 <g partID="14089770">
  <line x1="170.794" x2="166.114" stroke-linecap="round" y1="76.9696" stroke="black" stroke-width="1.728" y2="76.9696"/>
 </g>
 <g partID="14090860">
  <line x1="164.891" x2="159.397" stroke-linecap="round" y1="67.951" stroke="black" stroke-width="1.728" y2="62.576"/>
 </g>
 <g partID="14090350">
  <line x1="159.397" x2="157.222" stroke-linecap="round" y1="62.5759" stroke="black" stroke-width="1.728" y2="62.572"/>
 </g>
 <g partID="14089840">
  <line x1="164.86" x2="164.891" stroke-linecap="round" y1="75.7096" stroke="black" stroke-width="1.728" y2="67.951"/>
 </g>
</svg>
